<?xml version="1.0" encoding="UTF-8" standalone="no"?>
<!-- Created with Inkscape (http://www.inkscape.org/) -->

<svg
   version="1.1"
   id="svg430"
   width="302.40576"
   height="336.53467"
   viewBox="0 0 302.40576 336.53467"
   sodipodi:docname="335574756_1596327657546512_8662975750797281963_n.png"
   xmlns:inkscape="http://www.inkscape.org/namespaces/inkscape"
   xmlns:sodipodi="http://sodipodi.sourceforge.net/DTD/sodipodi-0.dtd"
   xmlns="http://www.w3.org/2000/svg"
   xmlns:svg="http://www.w3.org/2000/svg">
  <defs
     id="defs434" />
  <sodipodi:namedview
     id="namedview432"
     pagecolor="#505050"
     bordercolor="#eeeeee"
     borderopacity="1"
     inkscape:showpageshadow="0"
     inkscape:pageopacity="0"
     inkscape:pagecheckerboard="0"
     inkscape:deskcolor="#505050"
     showgrid="false"
     inkscape:zoom="2.054"
     inkscape:cx="-34.810127"
     inkscape:cy="249.75657"
     inkscape:window-width="3840"
     inkscape:window-height="2080"
     inkscape:window-x="3829"
     inkscape:window-y="-11"
     inkscape:window-maximized="1"
     inkscape:current-layer="g436" />
  <g
     inkscape:groupmode="layer"
     inkscape:label="Image"
     id="g436"
     transform="translate(-625.59967,24.361326)">
    <path
       style="fill:#000000"
       d="m 625.84231,311.19098 c 0,-0.54031 3.75695,-7.40281 8.34878,-15.25 4.59182,-7.84719 11.03988,-18.99262 14.32901,-24.76762 3.28912,-5.775 9.36241,-16.35 13.49619,-23.5 21.74059,-37.60368 54.03166,-93.52264 60.34478,-104.5 38.873,-67.593096 52.87487,-91.693956 53.90277,-92.780726 l 1.21136,-1.28073 20.42754,35.74084 c 11.37777,19.907006 20.57449,34.977806 20.75924,34.018486 0.18243,-0.9473 0.81852,-1.42148 1.41354,-1.05374 l 1.08184,0.66861 -0.60779,-2.40637 -0.60779,-2.40637 1.40667,1.88151 c 0.77367,1.03483 1.90536,4.40983 2.51487,7.5 0.60952,3.09017 1.84817,7.86849 2.75256,10.61849 0.9044,2.75 1.66283,5.44237 1.6854,5.98304 0.0226,0.54067 1.75141,1.26105 3.84188,1.60084 2.09046,0.3398 4.2828,1.09977 4.87185,1.68882 0.58906,0.58906 1.69118,0.83303 2.44916,0.54217 l 1.37814,-0.52885 -0.04,3.85699 -0.04,3.85699 -1.49189,-2.75 c -1.71805,-3.16686 -2.46719,-3.49866 -2.2578,-1 0.34092,4.06808 -0.23464,8.32823 -1.05654,7.82026 -0.48747,-0.30127 -1.12034,0.34717 -1.40638,1.44099 -0.28612,1.09381 -0.99816,1.98875 -1.58239,1.98875 -1.01623,0 -0.91887,-0.8747 0.52869,-4.75 0.35953,-0.9625 0.53951,-2.63625 0.39996,-3.71944 -0.2821,-2.18971 -4.05365,-7.46086 -4.05365,-5.66542 0,2.00545 -1.84142,1.20972 -2.58058,-1.11514 l -0.71535,-2.25 -0.78175,2 c -0.42996,1.1 -0.85858,3.575 -0.95249,5.5 l -0.17073,3.5 -0.89526,-4 c -0.4924,-2.2 -1.13077,-5.0125 -1.4186,-6.25 -0.61753,-2.65492 -2.4718,-3.02347 -2.51565,-0.5 l -0.0304,1.75 -1.07092,-1.84228 -1.07093,-1.84228 -3.39866,0.63759 -3.39867,0.6376 -0.0819,-2.79532 c -0.045,-1.53742 -0.0141,-5.3612 0.0688,-8.49728 l 0.15067,-5.70197 -16.81878,-29.483806 c -9.25032,-16.21609 -17.11387,-29.17521 -17.47454,-28.79803 -0.68721,0.71865 -7.81348,12.97893 -42.53918,73.185776 -11.57872,20.075 -27.94482,48.425 -36.3691,63 -8.42428,14.575 -16.95445,29.425 -18.95592,33 -2.00148,3.575 -11.81577,20.58919 -21.80954,37.80931 -9.9938,17.22012 -18.17052,31.50762 -18.17052,31.75 0,0.24238 6.8091,0.44069 15.13133,0.44069 h 15.13132 l 8.69541,-4.976 c 4.78248,-2.7368 11.13588,-6.13131 14.11868,-7.54336 2.98279,-1.41204 6.09826,-2.97019 6.92326,-3.46254 5.33136,-3.18171 15.90749,-7.79001 16.55033,-7.21143 0.42368,0.38133 0.46228,0.15618 0.0858,-0.50033 l -0.68453,-1.19367 4.45485,-2.61071 4.45485,-2.61072 3.1858,-4.96464 c 3.36876,-5.24976 7.64254,-9.23644 9.00134,-8.39666 0.44735,0.27647 1.09602,0.0453 1.44148,-0.51363 0.34546,-0.55897 1.1213,-1.01631 1.72408,-1.01631 1.62212,0 -2.27062,3.97792 -5.55457,5.67612 -1.56491,0.80924 -2.57772,1.73892 -2.2507,2.06594 0.32703,0.32703 2.57991,-0.83115 5.00641,-2.57373 2.4265,-1.74258 5.01325,-3.1711 5.74834,-3.17449 0.73508,-0.003 2.57402,-0.6517 4.08652,-1.4407 l 2.75,-1.43453 v 1.38168 c 0,1.70324 -0.95067,2.33026 -8.43868,5.56576 -3.26628,1.41132 -6.14883,3.19648 -6.40567,3.967 l -0.46699,1.40097 2.62049,-1.71701 c 2.95706,-1.93754 4.69085,-2.19957 4.69085,-0.70891 0,0.55445 -1.76527,1.71442 -3.92283,2.5777 -2.15755,0.86328 -4.15356,2.17088 -4.43556,2.90576 -0.282,0.73489 -3.03727,1.90113 -6.12281,2.59165 -6.31409,1.41303 -8.55315,3.12118 -2.88573,2.20148 l 3.67788,-0.59684 -0.66892,1.08234 -0.66892,1.08234 3.76345,-0.43339 c 3.49518,-0.4025 6.07289,-1.27435 10.55412,-3.56969 2.18359,-1.11846 4.03846,-0.14955 3.31632,1.73231 l -0.52935,1.37946 6.21118,-0.54476 c 8.55246,-0.75011 10.89382,-1.31191 10.19305,-2.44578 -0.63804,-1.03237 0.53278,-1.21203 10.01812,-1.53726 6.53844,-0.22419 8.27134,-0.53499 10.40451,-1.86605 l 1.40451,-0.87639 -0.81088,1.31204 -0.81088,1.31203 2.13902,-0.55937 2.13902,-0.55937 -1.08589,2.02902 -1.0859,2.02902 1.35324,0.85811 c 0.74429,0.47196 2.70325,1.12286 4.35325,1.44644 1.65,0.32357 4.10097,1.48646 5.44659,2.58419 l 2.44659,1.99588 -1.44659,0.89723 c -0.79562,0.49349 -1.49008,1.47472 -1.54324,2.18052 -0.16757,2.22487 -1.57712,4.78328 -2.63534,4.78328 h -1.01801 l 0.64321,-3.21603 0.6432,-3.21602 -1.35738,1.85632 -1.35738,1.85633 -0.58482,-1.52403 c -0.32165,-0.83821 -3.20652,-2.96585 -6.41083,-4.72808 l -5.826,-3.20406 -7.5,0.76436 c -4.125,0.4204 -9.525,0.84985 -12,0.95434 -2.475,0.10448 -5.1,0.25002 -5.83333,0.32342 -2.36645,0.23685 -0.67556,2.36728 2.79104,3.51655 3.97758,1.31867 4.72091,3.93828 1.91398,6.74521 l -1.97399,1.97399 -2.19885,-0.60293 -2.19885,-0.60293 1.5,1.3054 c 1.71566,1.49307 2.57497,4.27155 1.02478,3.31347 -0.56363,-0.34834 -1.02478,-0.2009 -1.02478,0.32763 0,0.52854 1.6875,1.85709 3.75,2.95233 2.0625,1.09525 3.6375,2.48937 3.5,3.09804 l -0.25,1.10669 h 42.91667 42.91666 l 0.50721,-1.25 0.5072,-1.25 0.89318,1.263 0.89318,1.26299 35.14004,-0.26299 35.14005,-0.263 -7.10975,-12.5 c -3.91037,-6.875 -7.20165,-12.62309 -7.31397,-12.77354 -0.11232,-0.15044 -0.89928,-0.007 -1.7488,0.31918 -1.8719,0.71831 -2.79669,3.74729 -1.69055,5.53707 l 0.80598,1.30411 -2.17855,1.11207 c -1.1982,0.61165 -2.06011,1.81458 -1.91535,2.67319 0.14476,0.85862 -0.41774,2.12625 -1.25,2.81696 -0.83226,0.69072 -1.5132,1.82065 -1.5132,2.51096 0,0.69031 -0.76138,1.87271 -1.69196,2.62756 l -1.69196,1.37244 0.88392,-1.5 0.88392,-1.5 -1.52938,1.23751 -1.52937,1.23752 -2.41259,-2.5699 -2.41258,-2.5699 1.47626,0.33239 c 0.86832,0.1955 1.60784,-0.5195 1.79578,-1.73624 l 0.31953,-2.06863 -2.54579,-1.15994 c -1.40018,-0.63796 -2.54578,-1.57255 -2.54578,-2.07687 0,-0.50431 -1.83952,-1.82706 -4.08783,-2.93943 l -4.08782,-2.02249 0.65862,2.66799 c 0.36224,1.46739 1.9449,4.69299 3.51703,7.16799 3.32807,5.23939 4.38742,8.93598 3.11878,10.88293 l -0.90112,1.38293 -2.35883,-1.73778 -2.35883,-1.73778 2.75,0.46618 c 1.5125,0.2564 2.75,0.29666 2.75,0.0895 0,-0.20719 -1.50151,-2.73229 -3.33669,-5.61132 -6.21199,-9.74542 -10.29108,-17.21007 -13.05381,-23.8882 -1.51392,-3.65947 -4.2874,-8.44667 -6.1633,-10.63824 -4.8895,-5.71229 -5.54466,-8.0166 -6.90019,-24.26929 -0.2551,-3.05861 -0.73595,-6.43361 -1.06856,-7.5 l -0.60476,-1.93889 1.44523,2.5 c 0.79487,1.375 1.7721,4.075 2.17162,6 0.70097,3.37754 3.98568,8 5.68477,8 0.45413,0 0.82569,-1.05 0.82569,-2.33333 v -2.33334 h 1.5 c 0.825,0 1.5,0.375 1.5,0.83334 0,0.45833 0.68357,0.83333 1.51905,0.83333 h 1.51905 l -0.63423,-2.75 c -0.61227,-2.65472 -4.58097,-9.35151 -7.15387,-12.07143 -0.6875,-0.72678 -1.25,-1.69947 -1.25,-2.16151 0,-0.46205 -0.7875,-0.71629 -1.75,-0.56499 l -1.75,0.27511 0.27449,1.88641 0.27448,1.88641 -2.54838,-3 c -1.40161,-1.65 -3.04448,-2.86855 -3.65083,-2.70788 -0.60635,0.16066 -1.74368,-0.62336 -2.52739,-1.74227 -0.78372,-1.11891 -2.29173,-2.49827 -3.35115,-3.06525 l -1.92621,-1.03088 0.61327,1.59816 0.61327,1.59815 -1.88577,-0.32501 -1.88578,-0.32506 0.13891,1.5 c 0.0764,0.825 0.44499,2.4 0.81907,3.5 l 0.68016,2 -1.31907,-2.10335 c -0.72549,-1.15684 -1.86497,-1.91237 -2.53219,-1.67896 -0.68315,0.23899 -1.5079,-0.80801 -1.88789,-2.39665 -0.37112,-1.55157 -1.13442,-3.40355 -1.69622,-4.1155 l -1.02145,-1.29446 -2.96577,0.65139 -2.96576,0.6514 0.78915,-1.27688 0.78915,-1.27687 -1.91405,0.72919 -1.91404,0.72918 1.18571,-1.19496 1.18572,-1.19496 -1.23998,-1.23998 c -0.68199,-0.68198 -3.01556,-2.15121 -5.18571,-3.26495 l -3.94574,-2.02499 4.70138,-0.70558 4.70138,-0.70558 -2.06321,-2.79064 c -1.13477,-1.53486 -2.18724,-4.07454 -2.33882,-5.64375 -0.15159,-1.5692 -0.61324,-3.90188 -1.02589,-5.18372 l -0.75027,-2.33062 -1.86366,0.48736 c -1.02502,0.26805 -1.63071,0.11042 -1.34598,-0.35028 0.28473,-0.4607 0.11151,-1.08868 -0.38493,-1.39549 -0.49644,-0.30682 -1.11597,0.258 -1.37673,1.25516 -0.26077,0.99716 -2.5265,2.77775 -5.03497,3.95688 -4.95322,2.32828 -7.05876,4.37091 -3.56331,3.45683 l 2.15775,-0.56427 -0.80307,1.40753 -0.80308,1.40752 1.34671,-1.25 c 1.34226,-1.24588 8.86657,-1.83654 7.62891,-0.59888 -0.35812,0.35812 0.0836,1.18833 0.98148,1.84492 l 1.63261,1.19379 -1.86376,3.15508 -1.86376,3.15509 -2.03439,-0.0153 -2.03439,-0.0153 1.33541,-0.84649 c 0.73448,-0.46557 1.39618,-1.24618 1.47045,-1.73468 0.0743,-0.48851 0.71083,-0.75597 1.41459,-0.59436 0.70375,0.16161 1.27955,-0.17589 1.27955,-0.75 0,-0.57411 -0.7875,-1.05073 -1.75,-1.05915 l -1.75,-0.0153 1.35676,-0.85968 1.35677,-0.85969 -1.20212,-0.74295 c -1.39675,-0.86324 -5.76477,1.16646 -8.18838,3.80493 l -1.67697,1.82563 -3.31484,-0.3188 -3.31484,-0.31881 -0.33121,-1.74841 c -0.41299,-2.18014 2.39488,-5.12917 3.96167,-4.16084 0.6392,0.39505 0.92396,0.31124 0.6328,-0.18624 -0.69904,-1.19439 0.67418,-4.90132 1.82114,-4.91608 0.49457,-0.006 2.36172,-0.62346 4.14922,-1.37132 l 3.25,-1.35975 v -1.81966 c 0,-1.00082 0.45,-2.09778 1,-2.4377 1.32193,-0.817 1.2822,-2.5 -0.059,-2.5 -0.58246,0 -0.77065,0.46657 -0.41822,1.03683 l 0.6408,1.03684 -3.49046,-0.23507 c -1.91975,-0.12929 -4.31905,0.39493 -5.33178,1.16494 l -1.84132,1.4 1.25,-1.40177 c 2.57361,-2.88609 1.08241,-2.88671 -4.25,-0.002 -3.025,1.63659 -5.5,2.47861 -5.5,1.87117 0,-0.6121 -0.89155,-0.87129 -2,-0.58142 -1.1,0.28766 -2,0.0886 -2,-0.44239 0,-0.53097 -0.44801,-0.68851 -0.99558,-0.35009 -1.30654,0.80765 -6.00444,-4.29431 -6.00444,-6.52067 0,-0.95234 -0.675,-2.29173 -1.5,-2.97642 l -1.5,-1.24489 v 2.07276 c 0,1.14001 -0.73279,2.48284 -1.62842,2.98406 l -1.62841,0.9113 1.12841,0.6974 c 0.62063,0.38357 1.12842,1.7477 1.12842,3.0314 0,1.2837 0.69611,2.60111 1.54691,2.9276 0.8508,0.32648 1.4133,1.35722 1.25,2.29054 l -0.29691,1.69693 2.5,0.63513 2.5,0.63512 -3.64952,0.70779 c -2.00723,0.38928 -4.171,1.33614 -4.80837,2.10412 l -1.15886,1.39634 2.30838,0.38029 2.30837,0.38029 -3.73986,1.87729 c -2.05693,1.03251 -3.97582,2.58362 -4.26422,3.44691 -0.2884,0.86329 -2.42638,2.91424 -4.75108,4.55767 l -4.22673,2.98805 1.84716,0.35573 c 1.01595,0.19565 2.33937,-0.13647 2.94095,-0.73805 0.60158,-0.60158 1.79128,-1.07881 2.64378,-1.06051 l 1.55,0.0333 -2.07668,1.73668 c -1.14218,0.95517 -1.90234,2.25973 -1.68924,2.89903 0.46572,1.39716 -3.36747,3.64236 -4.75475,2.78498 -0.53863,-0.33293 -0.97933,-0.12874 -0.97933,0.45372 0,0.58246 -1.2949,1.05902 -2.87756,1.05902 -1.58265,0 -3.43775,0.675 -4.12244,1.5 l -1.24489,1.5 1.2869,1.55061 1.28689,1.55062 -2.22101,0.58081 c -1.24299,0.32505 -2.00773,1.13658 -1.73668,1.84293 0.26638,0.69417 -0.60817,2.28847 -1.94344,3.54289 -2.38735,2.24279 -3.38543,4.64204 -1.42777,3.43214 0.55,-0.33992 1.00689,-0.029 1.01531,0.69098 l 0.0153,1.30902 0.96937,-1.5 c 0.53316,-0.825 0.97627,-1.07649 0.98469,-0.55887 0.008,0.51762 0.71049,0.0676 1.56015,-1 l 1.54485,-1.94113 -1.96011,4 c -1.07806,2.2 -3.79824,5.77883 -6.04485,7.95295 -3.95047,3.82301 -5.40068,6.37582 -2.83473,4.98997 0.6875,-0.37132 -0.4375,0.92918 -2.5,2.89 -3.97317,3.77728 -4.73947,5.26075 -2.21761,4.29303 l 1.53238,-0.58804 -1.78238,2.38311 c -0.98032,1.3107 -1.9186,2.25346 -2.08508,2.09502 -0.16648,-0.15845 -2.33704,1.79812 -4.82347,4.34794 -2.55498,2.62011 -4.0387,3.65764 -3.41213,2.38602 1.23199,-2.50031 0.82744,-2.74271 -2.02745,-1.21482 -1.06384,0.56935 -1.93426,0.79272 -1.93426,0.49638 0,-0.93576 3.4176,-6.82098 7.4311,-12.79664 2.12965,-3.17079 3.68707,-5.95009 3.46094,-6.17621 -0.63052,-0.63052 -12.10834,1.94309 -14.5763,3.26836 -4.1096,2.20682 -3.74508,1.17056 1.43418,-4.07707 2.93527,-2.97402 4.8713,-5.72137 4.46584,-6.33732 -0.39367,-0.59803 -3.53654,-1.92317 -6.98417,-2.94477 -3.44763,-1.02159 -6.11066,-2.3323 -5.91785,-2.91268 0.1928,-0.58038 3.68859,-2.15094 7.76841,-3.49013 4.07982,-1.3392 7.64214,-2.61349 7.91628,-2.83176 0.27413,-0.21828 -0.40087,-1.05444 -1.5,-1.85815 -1.09914,-0.80371 -1.99843,-1.89342 -1.99843,-2.42158 0,-1.2709 -5.24402,-5.73759 -7.62228,-6.49242 -2.51546,-0.79838 -2.39422,-2.46119 0.17946,-2.46119 2.97645,0 11.11449,-2.16166 10.4898,-2.78635 -0.29129,-0.2913 -0.0284,-1.13354 0.58414,-1.87164 l 1.11377,-1.34201 -1.24489,-1.5 c -0.68469,-0.825 -0.93265,-1.5 -0.55102,-1.5 0.97681,0 -2.25294,-3.16508 -5.35055,-5.24341 -1.42914,-0.95888 -2.07806,-1.74638 -1.44205,-1.75 0.66316,-0.004 0.93331,-0.85963 0.63337,-2.00659 -0.28766,-1.1 -0.30048,-2 -0.0285,-2 1.29707,0 7.67545,3.08855 8.2294,3.98485 0.34506,0.55833 1.52739,1.01515 2.62739,1.01515 1.1,0 1.77814,0.35899 1.50697,0.79775 -0.27117,0.43876 -0.11814,1.40433 0.34006,2.14571 l 0.83309,1.34797 1.8229,-0.69951 1.8229,-0.69951 -1.41982,-0.8775 -1.41982,-0.87749 2.8742,-0.72138 c 1.58081,-0.39676 4.10677,-0.25614 5.61323,0.31249 3.24435,1.2246 9.68716,0.24017 12.82853,-1.96013 l 2.22003,-1.55497 -1.26905,-0.42301 -1.26905,-0.42302 2.14832,-3.01703 c 1.18157,-1.65937 2.83893,-3.01704 3.68302,-3.01704 h 1.53471 l -1.10657,1.33334 -1.10657,1.33333 h 1 c 0.55,0 1.58866,-0.7093 2.30814,-1.57622 l 1.30815,-1.57621 -1.4357,-0.94266 -1.4357,-0.94265 2.70046,-2.02845 c 1.48525,-1.11564 2.48188,-2.59805 2.21473,-3.29422 -0.26715,-0.69618 0.3998,-2.06717 1.4821,-3.04664 1.08231,-0.97948 1.72615,-2.41068 1.43075,-3.18047 l -0.53708,-1.3996 2.35452,-0.87504 c 1.29499,-0.48127 2.8866,-0.6727 3.53693,-0.42539 1.38181,0.52548 4.25119,-4.62962 3.59705,-6.46245 -0.24537,-0.6875 0.0679,-1.25 0.69622,-1.25 0.6283,0 0.86424,-0.45 0.52432,-1 -0.33992,-0.55 0.0835,-1 0.94098,-1 0.85746,0 1.55902,-0.59165 1.55902,-1.31479 0,-0.72313 1.59784,-2.07674 3.55075,-3.00802 l 3.55075,-1.69324 1.70688,0.9135 1.70688,0.91349 2.35315,-1.90547 c 1.29423,-1.04801 1.7783,-1.90547 1.0757,-1.90547 -0.7026,0 -0.99888,-0.27857 -0.65841,-0.61905 0.76928,-0.76928 -1.18171,-2.76404 -3.59909,-3.67984 -2.52817,-0.95777 -1.20864,-2.5823 1.82684,-2.24909 l 2.50485,0.27496 -1.0509,-1.26624 -1.05089,-1.26625 1.21879,-0.40626 c 0.6892,-0.22973 0.88591,-0.94487 0.45271,-1.64581 l -0.76608,-1.23954 -1.43513,1.19106 c -0.78933,0.65508 -1.72427,0.90194 -2.07764,0.54856 -0.35338,-0.35337 -0.0909,-0.6425 0.58318,-0.6425 0.67413,0 0.93406,-0.47185 0.57764,-1.04856 l -0.64805,-1.04856 -1.30199,1.08056 -1.30199,1.08056 -1.0314,-2.95867 -1.03139,-2.95867 -2.15431,0.56337 c -1.18487,0.30985 -2.57724,1.67576 -3.09416,3.03535 l -0.93985,2.472 -1.48342,-1.23113 c -0.81589,-0.67713 -1.48343,-2.24594 -1.48343,-3.48625 0,-2.50021 2.23437,-4.89843 3.48572,-3.74132 0.44094,0.40772 0.0882,-0.38368 -0.78387,-1.75868 -0.87206,-1.375 -1.82261,-3.625 -2.11231,-5 -0.82705,-3.92529 -2.61088,-11.32516 -3.19409,-13.25 l -0.53023,-1.75 h 1.45924 c 2.10848,0 10.9486,8.23247 15.35265,14.29734 4.13134,5.68932 6.3823,7.78398 7.57361,7.04771 0.42502,-0.26268 1.0565,0.94104 1.40328,2.67493 l 0.6305,3.15252 2.60542,1.16375 c 3.2488,1.45112 6.53918,5.10233 8.70875,9.66375 0.9156,1.925 2.12824,4.0838 2.69476,4.79733 l 1.03003,1.29734 0.82296,-1.29734 0.82295,-1.29733 0.0153,1.64301 c 0.0216,2.32253 -3.04326,3.22699 -4.84151,1.42874 -0.82595,-0.82595 -3.12794,-4.55256 -5.11553,-8.28134 -3.55366,-6.66678 -5.44209,-8.12064 -8.83606,-6.80267 l -1.69159,0.65689 2.12626,1.17768 c 2.68179,1.48539 7.51117,7.20693 6.73678,7.98132 -0.31966,0.31966 -2.79877,-0.29289 -5.50914,-1.36122 -6.03705,-2.37958 -6.30285,-2.39136 -4.09281,-0.18132 0.96861,0.96861 3.70569,2.40287 6.0824,3.18726 2.37672,0.78439 6.19673,3.17365 8.48891,5.30948 2.29218,2.13583 3.6051,3.6 2.9176,3.25373 l -1.25,-0.62959 v 2.05901 c 0,1.13246 0.4024,2.05902 0.89421,2.05902 0.49182,0 0.82932,1.12468 0.75,2.49929 -0.0793,1.37462 -0.51203,2.49962 -0.9616,2.5 -0.44956,3.9e-4 -0.53174,0.90071 -0.18261,2.00071 0.36414,1.14731 0.1797,2 -0.43261,2 -0.58707,0 -1.06739,0.45 -1.06739,1 0,1.71696 2.49049,1.09433 4,-1 0.79284,-1.1 2.24218,-2 3.22076,-2 0.97858,0 1.77924,-0.47656 1.77924,-1.05902 0,-0.58246 0.45,-0.7809 1,-0.44098 0.55,0.33992 1,0.14148 1,-0.44098 0,-0.58246 0.65917,-1.05902 1.46482,-1.05902 0.80565,0 1.93799,-0.88414 2.51631,-1.96475 0.57833,-1.08061 2.7711,-2.47995 4.87282,-3.10964 l 3.82132,-1.14489 3.09895,1.60253 c 1.70443,0.88139 3.39569,2.08266 3.75837,2.66948 l 0.65941,1.06695 1.4554,-1.80984 1.4554,-1.80984 -0.33735,3.63647 -0.33734,3.63648 1.28594,-0.49346 c 0.70729,-0.27141 1.28597,-1.31876 1.28597,-2.32746 0,-1.0087 0.45,-2.11211 1,-2.45203 0.55,-0.33992 1,-0.14148 1,0.44098 0,1.33771 3.67411,1.39534 4.49292,0.0705 0.3629,-0.58718 -0.0858,-0.72119 -1.10503,-0.33006 l -1.71598,0.65849 0.67792,-1.0969 c 1.30248,-2.10745 8.65998,-7.43213 8.04113,-5.81942 l -0.61151,1.59358 2.36027,-0.8923 c 1.38133,-0.52221 2.23841,-1.56266 2.06644,-2.50857 -0.16676,-0.9173 0.37381,-1.61627 1.25,-1.61627 0.84911,0 1.54384,-0.45 1.54384,-1 0,-1.23882 -2.26755,-1.31061 -3.55,-0.11239 -0.5225,0.48818 -1.8875,1.1697 -3.03333,1.51449 l -2.08334,0.62688 v -1.4705 c 0,-0.80878 0.33657,-1.26249 0.74793,-1.00826 0.41135,0.25423 0.89885,0.1033 1.08333,-0.33541 0.3737,-0.8887 7.24332,-6.21481 8.01587,-6.21481 0.27042,0 0.56417,1.9125 0.65279,4.25 0.0925,2.43978 0.79459,4.71805 1.64839,5.34888 0.818,0.60438 1.209,1.37714 0.8689,1.71725 -0.34011,0.3401 -0.75282,1.84315 -0.91715,3.3401 l -0.29877,2.72172 1.66225,1.21547 1.66226,1.21547 -0.087,7.73812 -0.087,7.73812 1.60744,1.60744 c 0.88409,0.88409 2.63092,1.55584 3.88185,1.49279 l 2.27443,-0.11463 -0.56551,1.78176 -0.56551,1.78176 2.08703,-0.54577 2.08703,-0.54577 2.86393,3.2078 2.86393,3.20781 2.84012,-1.53912 2.84013,-1.53912 -2.92431,-0.04 -2.92432,-0.0401 2.34863,-2.5 c 1.29175,-1.375 2.91863,-2.5 3.6153,-2.5 0.69666,0 1.54394,-0.44864 1.88283,-0.99698 l 0.61617,-0.99697 -2.80715,1.03491 -2.80715,1.03492 5.81371,-5.64089 c 3.19755,-3.10249 6.012,-5.44262 6.25434,-5.20027 0.75513,0.75513 -2.61491,6.69005 -4.38527,7.7228 l -1.68278,0.98166 1.5,0.0457 1.5,0.0457 -1.1003,0.73468 c -0.60516,0.40408 -1.61888,1.71988 -2.2527,2.924 l -1.15241,2.18931 0.93361,0.577 c 0.51348,0.31735 1.21626,0.11966 1.56172,-0.43931 0.34546,-0.55892 1.10666,-1.01626 1.69154,-1.01626 h 1.06343 l -1.32583,1.59753 c -0.72921,0.87864 -1.43907,2.34114 -1.57747,3.25 l -0.25164,1.65247 2.70503,0.16171 c 1.48776,0.0889 3.27839,-0.31268 3.97919,-0.8925 2.27722,-1.88411 2.35728,-0.10632 0.16272,3.61319 l -2.14439,3.63445 1.7678,-0.67836 1.76779,-0.67837 -0.6697,1.08359 -0.66969,1.0836 3.00565,-0.4737 c 1.68776,-0.26599 3.00565,-0.026 3.00565,0.54739 0,1.47864 -4.15156,5.12336 -5.13999,4.51248 -0.46041,-0.28454 -0.56911,0.18102 -0.24157,1.03458 0.35245,0.91846 0.0416,1.58702 -0.76145,1.63789 -0.74635,0.0473 -0.0279,0.48286 1.59658,0.96796 1.62446,0.48511 3.98696,0.62264 5.25,0.30564 1.36069,-0.34151 2.29643,-0.12471 2.29643,0.53204 0,0.60963 -0.3375,1.11402 -0.75,1.12088 -0.4125,0.007 -2.68205,1.80685 -5.04346,4 -2.3614,2.19314 -5.0614,3.99442 -6,4.00284 l -1.70654,0.0153 1.5,0.96937 c 0.825,0.53316 1.09276,0.97627 0.59501,0.98469 -0.49774,0.008 -0.12738,0.87456 0.82303,1.92475 l 1.72802,1.90944 -1.73293,0.9698 -1.73294,0.9698 2.18791,1.17093 c 1.20336,0.64402 1.94639,1.56174 1.65118,2.03939 -0.2952,0.47765 0.86167,1.1756 2.57083,1.55099 3.90022,0.85663 3.19422,1.43684 -6.0457,4.96856 l -7.45558,2.84971 1.85816,1.08097 c 1.02199,0.59453 2.56451,1.86847 3.42783,2.83097 0.86331,0.9625 2.48215,1.75277 3.59742,1.75616 l 2.02776,0.006 -2.99777,1.56308 c -6.43329,3.35442 -7.61723,5.72281 -4.15038,8.30264 l 1.85184,1.37804 -1.14345,0.70669 -1.14345,0.70669 12.15909,21.41527 c 6.6875,11.7784 13.04292,22.87777 14.12316,24.66527 l 1.96408,3.25016 H 776.92387 625.84231 Z M 876.6896,278.58245 c -0.54533,-1.975 -0.76294,-4.18651 -0.4836,-4.91448 1.41367,-3.68396 -10.50497,-18.49461 -14.88325,-18.49461 h -1.51955 l 0.48032,2.25 c 0.26417,1.2375 1.35441,5.51759 2.42275,9.51132 l 1.94243,7.26132 2.34681,1.95541 c 1.29074,1.07548 2.61545,1.97038 2.94379,1.98868 0.32834,0.0183 1.6347,0.93327 2.90301,2.03327 1.26831,1.1 2.87589,2 3.5724,2 h 1.26639 z m -82.38863,-97.47597 c -0.36467,-0.59006 -0.0545,-0.92798 0.69406,-0.75608 1.54078,0.35382 7.84728,-3.84203 7.84728,-5.22096 0,-0.49926 -0.93484,-2.38112 -2.07741,-4.18191 l -2.07741,-3.27417 0.66034,2.29896 0.66034,2.29897 -1.55629,2.37519 c -0.85596,1.30636 -2.50052,2.67488 -3.65459,3.04117 l -2.09831,0.66598 -1.92833,-1.74512 c -3.21666,-2.91104 -1.85211,-9.1106 1.70486,-7.74566 l 1.38948,0.53319 -0.61833,-1.61134 -0.61833,-1.61134 2.35699,-0.04 2.35699,-0.04 -2.80743,-1.52198 c -3.77588,-2.04702 -6.57167,-1.46288 -9.06952,1.89495 l -2.0776,2.79289 v 3.94412 c 0,4.78802 1.97559,7.00301 7.13664,8.00148 2.09985,0.40624 3.95697,0.79037 4.12693,0.85362 0.16996,0.0632 0.0123,-0.3651 -0.35036,-0.95188 z m -60.45866,14.68355 v -1.42943 l -2.25,0.49313 -2.25,0.49312 1.5,-1.07143 1.5,-1.07143 -3.19098,-0.0153 c -1.75504,-0.008 -3.48859,-0.49684 -3.85233,-1.08539 -0.36374,-0.58854 -1.6278,-1.46002 -2.80902,-1.93661 l -2.14767,-0.86654 1.94113,-0.0634 1.94113,-0.0634 -1.74835,-1.27842 -1.74834,-1.27842 3.642,-1.31697 c 4.12429,-1.49136 9.65358,-0.81777 11.49439,1.40027 0.67261,0.81045 2.31939,1.47354 3.6595,1.47354 1.36974,0 2.16597,0.43784 1.81854,1 -0.33992,0.55 0.0354,1 0.83399,1 0.79862,0 1.71105,0.675 2.02764,1.5 l 0.5756,1.5 h -2.02763 -2.02763 l 0.72306,1.16994 0.72306,1.16994 -1.80495,-0.69263 c -1.04195,-0.39983 -2.8022,-0.0392 -4.16404,0.85312 l -2.3591,1.54574 v -1.42944 z m 145.50791,-29.60387 c -0.79599,-1.28794 0.46324,-12.3654 1.6074,-14.14037 l 0.88469,-1.37243 1.03594,1.5 c 1.02523,1.4845 0.63279,10.09373 -0.60743,13.32571 -0.71952,1.87502 -2.00021,2.17631 -2.9206,0.68709 z m -136.40611,-6.68795 c -2.80599,-3.14825 -5.1018,-6.08426 -5.1018,-6.52447 0,-1.68828 4.45533,-0.69046 7.58889,1.69962 1.80272,1.375 3.67306,2.5 4.15633,2.5 0.99533,0 5.25478,5.47561 5.25478,6.75512 0,0.45986 -1.52919,0.93909 -3.3982,1.06496 l -3.39821,0.22886 z m 19.84597,-8.08839 c -0.75663,-1.50505 -2.11102,-3.86146 -3.00975,-5.23646 -1.87628,-2.87059 -4.31525,-11.9561 -3.44357,-12.82778 1.76869,-1.76869 16.50555,10.42937 16.50555,13.66205 v 1.39888 l -2.45704,-0.46969 -2.45704,-0.46969 1.95704,2.48797 c 2.70632,3.44053 2.50691,3.86885 -1.88122,4.04079 l -3.83827,0.1504 z m 78.74013,-8.32192 c -0.29671,-1.13463 -1.49832,-2.31371 -2.67025,-2.62017 -1.17192,-0.30647 -1.91881,-1.10956 -1.65975,-1.78466 l 0.47102,-1.22744 -2.91446,0.33933 -2.91446,0.33934 v -1.75778 c 0,-0.96679 1.42199,-3.00557 3.15999,-4.53063 l 3.15998,-2.77284 0.8247,1.30015 c 0.45359,0.71509 0.8316,3.16018 0.84002,5.43353 l 0.0153,4.13337 2,0.52301 c 1.1,0.28766 2,1.21358 2,2.05761 0,2.42525 -1.71611,2.84622 -2.3121,0.56718 z"
       id="path2999" />
    <g
       id="g2895"
       transform="translate(538.59969,-87.861326)">
      <path
         style="fill:#9e9e9e"
         d="m 332.98431,374.47462 c -1.19834,-1.93897 -1.90228,-4.246 -1.5643,-5.12675 0.33797,-0.88075 0.0442,-2.29162 -0.65276,-3.13527 l -1.26725,-1.53391 2.18532,1.36081 c 1.20192,0.74844 1.98208,1.68964 1.73368,2.09155 -0.24839,0.40192 0.0753,1.05638 0.7192,1.45436 l 1.17082,0.72361 -0.81088,-1.31204 -0.81088,-1.31203 2.15637,0.56391 c 2.45018,0.64073 2.83327,-0.44219 0.76396,-2.15957 -0.76583,-0.63558 -1.93923,-2.47572 -2.60755,-4.08919 -1.36599,-3.2978 -4.41146,-4.73347 -6.45078,-3.04098 l -1.35477,1.12436 -0.5183,-1.29174 -0.5183,-1.29174 -0.0789,1.43555 c -0.0434,0.78955 0.93355,2.58633 2.17105,3.99284 l 2.25,2.5573 -2.25,-1.89783 c -1.2375,-1.04381 -2.26268,-1.49059 -2.27817,-0.99285 -0.0155,0.49775 -1.06248,-1.12001 -2.32663,-3.59501 -2.30285,-4.50859 -4.85189,-6.4489 -9.78461,-7.44799 l -2.6394,-0.5346 -0.65483,-2.60902 c -0.36015,-1.43496 -1.56143,-3.83528 -2.66951,-5.33403 -1.10807,-1.49876 -2.10067,-4.38125 -2.20577,-6.40554 L 304.5,332.98829 303.03048,333.547 c -0.80823,0.30729 -1.14964,0.23883 -0.75868,-0.15214 0.39097,-0.39096 0.30988,-1.20225 -0.18019,-1.80285 l -0.89104,-1.09201 1.14972,-1 c 0.63234,-0.55 1.82471,-1 2.64971,-1 h 1.5 l -0.34946,-4 c -0.4823,-5.52046 -2.55812,-10.11258 -5.21375,-11.53383 l -2.23252,-1.19481 0.61539,3.36432 0.61538,3.36432 -2.34819,-4.4663 -2.3482,-4.46631 1.60102,-3.53369 c 0.88056,-1.94354 1.68832,-3.68266 1.79503,-3.86472 0.1067,-0.18206 1.14515,0.17802 2.30766,0.80017 1.16251,0.62216 1.88101,1.50763 1.59666,1.96772 -0.28435,0.46008 0.1263,1.37041 0.91255,2.02294 0.78625,0.65253 1.20062,1.783 0.92082,2.51215 -0.27981,0.72916 -0.1048,1.57539 0.3889,1.88051 1.359,0.83991 0.80721,-2.96254 -0.69205,-4.76904 -2.09569,-2.52516 0.0628,-1.83107 2.97133,0.95544 l 2.65002,2.53888 1.4047,-1.73084 c 0.77259,-0.95195 0.8733,-1.41211 0.22381,-1.02256 -0.6495,0.38955 -1.46809,0.24359 -1.8191,-0.32435 -0.35101,-0.56794 -0.99696,-0.8109 -1.43545,-0.53989 -0.43849,0.271 -1.60214,-0.39666 -2.58589,-1.48369 L 303.69002,303 h 1.18638 c 0.6525,0 1.40898,0.58012 1.68107,1.28916 0.27208,0.70904 1.43064,1.35966 2.57458,1.44583 l 2.07988,0.15668 -1.70965,-1.88916 c -0.94032,-1.03903 -3.013,-2.17541 -4.60597,-2.52528 C 303.30334,301.12735 302,300.42684 302,299.92054 302,299.41425 302.26949,299 302.59887,299 c 1.10139,0 7.86889,3.33298 10.65113,5.24567 l 2.75,1.89052 v -1.1765 -1.17651 l 2.47336,0.62078 2.47336,0.62077 -0.64697,-1.68597 -0.64697,-1.68598 1.81505,0.6965 1.81506,0.6965 L 322.019,301.52289 320.75511,300 h 1.18146 c 0.67903,0 0.8621,-0.53159 0.43049,-1.25 l -0.75098,-1.25 1.69196,1.37244 1.69196,1.37245 1.31143,-1.08839 1.31142,-1.08839 1.2868,3.55858 c 0.70774,1.95722 1.41133,4.69306 1.56354,6.07965 0.15221,1.38659 0.89551,2.91302 1.65178,3.39206 0.75627,0.47903 1.03149,0.87787 0.61161,0.88629 -0.41988,0.008 -0.11202,1.57432 0.68413,3.47978 0.79615,1.90546 1.40947,4.80367 1.36293,6.44047 l -0.0846,2.97601 2.71961,3.30952 c 5.20437,6.33328 8.60458,11.11966 8.19224,11.53199 -0.22823,0.22823 -2.59654,-1.13135 -5.26291,-3.02128 -7.2919,-5.16851 -9.06462,-3.28878 -3.67158,3.89321 1.27799,1.70192 2.32362,3.62052 2.32362,4.26357 0,0.64305 0.44669,1.95057 0.99265,2.90561 0.54595,0.95504 1.65197,3.7466 2.45781,6.20348 l 1.46517,4.46706 -1.20781,0.80326 -1.20782,0.80326 2.10318,1.77109 c 2.07565,1.74791 4.39682,5.34362 4.39682,6.8111 0,0.41487 -0.91753,-0.23055 -2.03896,-1.43426 C 344.83962,365.98485 343.52452,365 343.0386,365 c -0.48592,0 -1.41697,-1.61643 -2.06898,-3.59206 -1.54667,-4.68646 -3.13284,-3.06553 -1.98415,2.02762 l 0.88722,3.93381 -0.93905,1.75463 -0.93905,1.75462 1.00271,0.61971 c 0.55148,0.34084 1.0027,-0.16671 1.0027,-1.12787 v -1.74758 l 2.11594,2.27119 2.11594,2.2712 -0.87664,1.96463 -0.87664,1.96464 -2.13285,-1.98705 c -1.17307,-1.09288 -2.34163,-1.77828 -2.5968,-1.52311 -0.25517,0.25518 -1.03317,-0.22192 -1.72889,-1.06021 -2.23579,-2.69396 -3.0904,-1.62828 -1.58451,1.97583 1.86688,4.46806 1.31995,4.45849 -1.45124,-0.0254 z M 116.25,326.21922 C 109.5125,326.06479 104,325.7055 104,325.42078 c 0,-0.28471 3.63372,-6.90836 8.07494,-14.71922 4.44122,-7.81086 8.15372,-14.64993 8.25,-15.19794 0.0963,-0.54801 0.71463,-1.44801 1.37411,-2 1.76902,-1.48069 23.43277,-39.70513 22.83929,-40.29861 -0.2786,-0.2786 -6.14585,0.97914 -13.03834,2.79499 -6.89249,1.81585 -12.71814,3.11519 -12.9459,2.88743 -0.22776,-0.22776 6.0345,-2.14451 13.91613,-4.25946 l 14.33023,-3.84536 2.76505,-5.14131 c 1.52078,-2.82771 4.26568,-7.51254 6.09977,-10.41072 1.8341,-2.89818 3.33472,-5.71068 3.33472,-6.25 L 159,228 H 137.5 116 v -0.98123 -0.98122 l 22.71978,-0.26878 22.71977,-0.26877 4.27198,-7.5 4.27197,-7.5 -2.74175,-1.14207 c -1.50796,-0.62814 -12.96722,-3.97767 -25.46502,-7.4434 -12.49779,-3.46573 -22.57818,-6.44642 -22.40085,-6.62374 0.17732,-0.17733 11.91587,2.63413 26.08566,6.24767 14.16979,3.61355 25.87027,6.43316 26.00107,6.26581 0.1308,-0.16735 1.90683,-3.18627 3.94672,-6.70872 l 3.70891,-6.40444 -1.30912,-0.86305 c -0.72002,-0.47467 -7.39779,-4.41595 -14.83951,-8.7584 -15.19557,-8.86704 -29.50882,-17.92943 -26.46961,-16.75914 0.55,0.21179 10.31703,5.67288 21.7045,12.13577 11.38748,6.46289 21.18956,11.58902 21.7824,11.39141 0.59283,-0.19761 2.63852,-3.17508 4.54597,-6.61658 l 3.46809,-6.25729 -19.50048,-19.83726 C 157.77522,148.21608 149,138.90189 149,138.42838 c 0,-0.4735 8.68878,7.7864 19.30839,18.35535 C 178.92801,167.35268 188.13316,176 188.76428,176 190.00051,176 198,162.94878 198,160.93187 c 0,-0.67055 -2.17375,-4.86704 -4.83056,-9.32553 C 190.51263,147.14785 186.8403,140.8 185.00871,137.5 c -1.83159,-3.3 -4.4256,-7.9125 -5.76446,-10.25 -1.33886,-2.3375 -2.2183,-4.25 -1.9543,-4.25 0.264,0 5.33836,8.10839 11.27637,18.01865 5.93801,9.91026 11.12302,17.67276 11.52224,17.25 0.39923,-0.42276 3.32855,-5.43244 6.5096,-11.13262 l 5.78373,-10.36397 -3.21784,-13.0258 c -1.76981,-7.16419 -3.05097,-13.19268 -2.84701,-13.39663 0.20396,-0.20396 1.63291,4.47144 3.17545,10.38977 1.54253,5.91833 3.13085,11.39047 3.52959,12.16031 l 0.72499,1.3997 6.9864,-11.8997 c 3.84252,-6.54484 9.07443,-15.4903 11.62646,-19.8788 L 237,94.541817 237.20133,79.020909 237.40265,63.5 l 0.54868,16 0.54867,16 7.40182,13 c 7.44177,13.07018 15.02933,25.5 15.566,25.5 0.1587,0 1.54489,-4.49847 3.08043,-9.9966 1.53554,-5.49812 2.95194,-9.83654 3.14756,-9.64092 0.19562,0.19562 -0.86515,5.32081 -2.35726,11.38932 l -2.71294,11.03365 5.77998,10.35728 c 3.17899,5.6965 6.128,10.72455 6.55337,11.17344 0.42536,0.44889 2.93114,-2.92611 5.5684,-7.5 7.90741,-13.71409 19.73932,-33.24734 20.7864,-34.31617 l 0.97965,-1 -0.51882,1 c -0.28535,0.55 -5.97636,10.5501 -12.6467,22.22244 C 282.45755,150.39477 277,160.46123 277,161.09233 c 0,0.63111 1.89096,4.47102 4.20213,8.53314 l 4.20214,7.38567 4.04786,-3.73674 c 2.22633,-2.05521 11.87223,-11.39522 21.43534,-20.75557 9.56311,-9.36036 16.65203,-15.90823 15.75316,-14.55083 -0.89887,1.35739 -10.18573,11.05693 -20.63747,21.55452 C 295.55142,170.02012 287,178.88977 287,179.23286 287,180.79041 294.35851,192 295.38097,192 c 0.63096,0 7.44087,-3.62522 15.13312,-8.05605 C 329.36847,173.08361 339,167.77907 339,168.25542 c 0,0.53498 -11.73105,7.82604 -27.5,17.09176 -7.15,4.20129 -13.5891,8.02238 -14.30912,8.49132 l -1.30912,0.85261 3.70891,6.40444 c 2.03989,3.52245 3.81592,6.54137 3.94672,6.70872 0.1308,0.16735 11.83128,-2.65226 26.00107,-6.26581 14.16979,-3.61354 25.9099,-6.42344 26.08913,-6.2442 0.17923,0.17923 -8.32615,2.71653 -18.90086,5.63845 -10.5747,2.92192 -22.05711,6.18099 -25.51647,7.24239 l -6.28974,1.92981 4.28974,7.94656 4.28974,7.94656 24.45,9.8e-4 24.45,9.9e-4 -0.95,0.93278 c -0.5225,0.51303 -11.90525,1.03676 -25.29499,1.16385 l -24.34499,0.23108 -2.11506,-3.41386 c -1.16328,-1.87762 -2.69553,-3.77371 -3.40501,-4.21354 -0.70947,-0.43983 -1.28995,-1.5165 -1.28995,-2.3926 0,-0.8761 -2.77185,-6.36624 -6.15966,-12.20031 -18.1404,-31.23911 -42.00478,-72.6626 -50.59027,-87.81392 C 242.88753,108.82989 238.05,101.08425 237.5,101.08095 c -0.55,-0.003 -3.98313,5.26463 -7.62917,11.70652 -7.30143,12.90028 -31.77058,55.3756 -56.86624,98.71253 -8.91787,15.4 -23.06534,39.925 -31.43882,54.5 -8.37347,14.575 -19.12629,33.14543 -23.89514,41.26762 C 112.90179,315.38981 109,322.28038 109,322.58 c 0,0.29962 4.90682,0.40419 10.90405,0.23238 L 130.8081,322.5 l -1.0395,2 c -0.57173,1.1 -1.09105,2 -1.15405,2 -0.063,0 -5.62705,-0.12635 -12.36455,-0.28078 z"
         id="path2901" />
      <path
         style="fill:#5e5e5e"
         d="m 137.92596,390.40885 c 1.69367,-1.42513 2.78367,-3.06966 2.42221,-3.65451 -0.37214,-0.60214 -0.1864,-0.77239 0.42822,-0.39254 0.59698,0.36895 1.34308,0.25392 1.658,-0.25563 0.31492,-0.50956 3.5408,-2.558 7.16864,-4.55211 l 6.59605,-3.62565 1.89417,0.60119 1.89417,0.60118 -0.52736,-1.37426 -0.52735,-1.37425 6.28365,-2.91247 c 3.456,-1.60186 6.73364,-2.96933 7.28364,-3.03882 0.55,-0.0695 1.58906,-0.19489 2.30902,-0.27867 0.71996,-0.0838 1.06654,-0.54463 0.77019,-1.02414 -0.29635,-0.47951 1.81758,-2.43639 4.69763,-4.34863 l 5.23645,-3.47681 2.30424,0.35165 2.30423,0.35165 -0.75284,-1.25301 -0.75284,-1.25302 1.50564,1.21781 1.50563,1.21781 -0.0637,-2.88511 c -0.035,-1.58681 -0.47333,-3.25982 -0.97401,-3.71781 -0.51797,-0.4738 -0.63588,-0.35155 -0.27358,0.28365 0.35021,0.614 -0.25264,1.92124 -1.33967,2.90499 -2.36771,2.14274 -2.55547,1.29204 -0.4306,-1.95092 l 1.54581,-2.35922 1.98707,0.51963 c 1.09489,0.28632 2.79545,-0.21195 3.78751,-1.10976 l 1.80046,-1.62938 v 1.48966 c 0,0.81932 -0.8487,1.75904 -1.88599,2.08826 l -1.88598,0.59859 1.03464,1.24666 1.03465,1.24667 -2.02095,2.16924 c -1.11152,1.19307 -2.79092,2.23967 -3.732,2.32575 -0.94107,0.0861 -2.9608,0.24417 -4.48829,0.35129 -1.52749,0.10712 -3.9243,1.27236 -5.32624,2.58941 l -2.54898,2.39465 2.32623,0.65438 c 3.56492,1.00284 5.0063,0.95411 4.32624,-0.14625 -0.36394,-0.58886 0.74244,-1.00561 2.69098,-1.01365 1.81996,-0.008 4.39742,-0.30485 5.72769,-0.66074 l 2.41867,-0.64709 -0.63728,1.66074 L 194.06274,370 h 2.52763 c 1.3902,0 2.29164,-0.38185 2.0032,-0.84856 -0.62681,-1.01419 3.02929,-5.15144 4.55234,-5.15144 0.63074,0 0.76685,0.71653 0.33245,1.75 -0.40457,0.9625 -0.95517,2.7625 -1.22356,4 -0.26839,1.2375 -0.83544,2.25 -1.26012,2.25 -0.42467,0 -1.07639,1.62188 -1.44828,3.60418 l -0.67614,3.60418 -2.43515,-0.46551 c -3.04963,-0.58297 -3.13656,0.0209 -0.18514,1.28619 l 2.25,0.96459 -3.81995,-0.39633 -3.81994,-0.39633 -0.53704,1.39952 c -0.29538,0.76973 -1.7264,1.4064 -3.18006,1.41482 L 184.5,383.03063 186,384 l 1.5,0.96937 -1.5,0.1338 c -0.825,0.0736 -2.175,0.0617 -3,-0.0264 l -1.5,-0.16018 1.47104,0.98733 c 0.80907,0.54303 1.15048,1.30789 0.75868,1.69969 -0.3918,0.3918 -0.21117,1.31627 0.4014,2.05437 l 1.11377,1.34201 -2.37245,0.1726 c -1.30484,0.0949 0.55256,0.47577 4.12756,0.8463 3.575,0.37054 -3.85,0.56956 -16.5,0.44228 -12.65,-0.12729 -23.9,-0.31007 -25,-0.40617 l -2,-0.17473 2.5,-1.4047 c 1.375,-0.77259 1.9375,-1.42066 1.25,-1.44014 C 146.5625,389.01595 145.1,389.9 144,391 l -2,2 h -3.57673 -3.57672 z"
         id="path2899" />
      <path
         style="fill:#0c0c0c"
         d="m 87,399.53665 c 0,-0.25485 3.201662,-5.99235 7.114805,-12.75 C 98.027948,380.02899 109.00607,361 118.51063,344.5 c 20.2111,-35.08663 31.39452,-54.47316 47.30297,-82 34.21476,-59.20275 44.22297,-76.56831 61.23063,-106.24318 5.75067,-10.03374 10.75016,-18.24624 11.10997,-18.25 0.89528,-0.009 39.8727,68.36366 40.59632,71.21284 l 0.57916,2.28034 -3.34446,-3.5 -3.34445,-3.5 -0.57039,2.26261 -0.57038,2.26261 -16.1227,-28.22018 c -8.86748,-15.52109 -16.53145,-28.35642 -17.03105,-28.52296 -0.8139,-0.2713 -3.45313,3.8708 -10.33359,16.21792 -1.22595,2.2 -6.15576,10.75 -10.95512,19 -4.79935,8.25 -12.35226,21.3 -16.78422,29 -7.97645,13.8581 -27.72077,48.11456 -64.55318,112 -10.46417,18.15 -23.007,39.82097 -27.87295,48.1577 C 102.98123,384.99444 99,392.08194 99,392.4077 c 0,0.32577 21.2625,0.51463 47.25,0.4197 25.9875,-0.0949 44.325,-0.46726 40.75,-0.8274 -3.575,-0.36014 -5.4324,-0.73247 -4.12756,-0.8274 l 2.37245,-0.1726 -1.11377,-1.34201 c -0.61257,-0.7381 -0.7932,-1.66257 -0.4014,-2.05437 0.3918,-0.3918 0.0504,-1.15666 -0.75868,-1.69969 L 181.5,384.9166 l 1.5,0.16018 c 0.825,0.0881 2.175,0.1 3,0.0264 l 1.5,-0.1338 L 186,384 l -1.5,-0.96937 2.64301,-0.0153 c 1.45366,-0.008 2.88468,-0.64509 3.18006,-1.41482 l 0.53704,-1.39952 3.81994,0.39633 3.81995,0.39633 -2.25,-0.96459 c -2.95142,-1.2653 -2.86449,-1.86916 0.18514,-1.28619 l 2.43515,0.46551 0.67614,-3.60418 C 199.91832,373.62188 200.6225,372 201.11129,372 201.60008,372 202,371.1 202,370 c 0,-1.1 0.5625,-2.00614 1.25,-2.01365 0.6875,-0.008 2.375,-0.30219 3.75,-0.65484 l 2.5,-0.64118 -2.5,2.21909 c -1.375,1.2205 -1.86847,2.05466 -1.09659,1.8537 1.71027,-0.44529 6.36419,3.99487 5.55669,5.30145 -0.31798,0.51449 0.0109,0.97198 0.73088,1.01665 0.71996,0.0447 -0.041,0.69937 -1.69098,1.45489 -1.65,0.75553 -2.325,1.40992 -1.5,1.45422 l 1.5,0.0805 -2.5,1.42913 -2.5,1.42913 1.87244,0.0354 1.87245,0.0354 -0.99402,1.25 c -0.54671,0.6875 -0.86152,2.07233 -0.69957,3.07739 l 0.29445,1.8274 -1.42287,-0.54601 c -1.30697,-0.50153 -1.89784,0.5869 -1.50041,2.7639 0.0876,0.47998 -0.42158,0.65507 -1.13158,0.3891 -0.70999,-0.26596 -3.31589,-0.1525 -5.79089,0.25216 -2.475,0.40465 36.5625,0.79205 86.75,0.86089 50.1875,0.0688 91.25,-0.1588 91.25,-0.50588 0,-0.63614 -13.92212,-25.43904 -14.80116,-26.36895 -0.25996,-0.275 -0.67354,0.0625 -0.91908,0.75 -0.24553,0.6875 -0.97143,1.26431 -1.61309,1.2818 -0.64167,0.0175 -2.04018,0.6925 -3.1078,1.5 l -1.94113,1.4682 1.79817,1.31485 1.79817,1.31486 -2.68546,1.75958 c -1.50144,0.98378 -2.45665,2.35588 -2.16649,3.11204 0.28545,0.74384 -0.14974,1.90744 -0.96708,2.58577 -0.81734,0.67833 -1.25724,1.82965 -0.97756,2.55848 l 0.50851,1.32515 -1.88724,-1.1786 -1.88724,-1.1786 -0.67395,-5.80676 C 346.1069,373.61304 345.37125,371 344.8428,371 c -0.52846,0 -0.65303,-0.49804 -0.27682,-1.10676 l 0.68402,-1.10677 0.71327,1.1541 0.71327,1.1541 1.27361,-1.5346 c 0.73879,-0.89019 0.96114,-2.27481 0.5295,-3.29734 -0.40926,-0.9695 -0.87242,-2.7144 -1.02925,-3.87755 -0.15682,-1.16316 -1.70179,-4.92119 -3.43324,-8.3512 -1.73146,-3.43 -2.89365,-6.49083 -2.58264,-6.80184 0.31102,-0.31101 0.56548,-0.132 0.56548,0.3978 0,1.60662 5.884,8.60463 10.64505,12.66046 l 2.10171,1.79039 -2.42104,-5.05877 c -1.33157,-2.78232 -2.10507,-5.57003 -1.71887,-6.1949 l 0.70217,-1.13614 -1.11192,0.68721 c -0.64418,0.39812 -1.76084,-0.56765 -2.65451,-2.29583 -1.98659,-3.84165 -1.97217,-4.99435 0.0316,-2.52349 0.86578,1.06762 1.28923,1.37863 0.94098,0.69113 -0.34825,-0.6875 -0.18694,-1.25 0.35846,-1.25 0.54539,0 1.26408,0.85843 1.59708,1.90762 0.54191,1.7074 3.33307,3.62197 4.12532,2.82972 0.17035,-0.17036 -0.92297,-1.64345 -2.42961,-3.27354 C 349.28809,343.34966 345,336.79505 345,335.50952 c 0,-0.41492 0.74729,-0.13681 1.66066,0.61804 l 1.66065,1.37244 -1.3728,-2.20452 c -0.75504,-1.21249 -1.57467,-2.00266 -1.8214,-1.75593 -0.62839,0.62839 -4.76173,-6.72197 -4.96247,-8.82482 -0.0412,-0.4319 -0.99514,-1.95508 -2.1198,-3.38486 C 336.92018,319.9001 336,318.10014 336,317.32996 c 0,-0.77018 -0.7083,-2.48133 -1.574,-3.80256 -0.8657,-1.32123 -2.18168,-4.70581 -2.92439,-7.52129 -0.74271,-2.81548 -2.59105,-6.74566 -4.10743,-8.73373 -1.51637,-1.98807 -2.2254,-3.2861 -1.57561,-2.88451 0.64979,0.40159 1.18143,0.25891 1.18143,-0.31706 0,-0.57598 1.00392,-0.94004 2.23093,-0.80902 l 2.23093,0.23821 0.12064,-2.5 c 0.0663,-1.375 0.29993,-3.11875 0.51906,-3.875 0.62184,-2.14595 -1.67422,-2.40781 -3.67953,-0.41964 l -1.81012,1.79464 0.59314,-1.56885 0.59315,-1.56885 -2.97242,-1.12196 -2.97243,-1.12196 0.91809,1.19081 c 0.50495,0.65494 1.20779,2.00168 1.56187,2.99275 l 0.64378,1.80194 -1.02863,-0.63573 -1.02862,-0.63573 0.64849,2.58379 c 0.6734,2.68304 -0.37404,3.37808 -2.25546,1.49666 l -1.08713,-1.08713 -0.64675,1.04645 c -0.35571,0.57555 -0.0778,1.95749 0.61758,3.07097 l 1.26433,2.02451 -1.79157,1.76616 -1.79157,1.76617 -1.18888,-1.5 c -1.48815,-1.87759 -3.90315,-1.89698 -6.12956,-0.0492 l -1.71175,1.42063 -0.73551,-1.19008 c -0.40453,-0.65455 -1.83273,-1.12722 -3.17378,-1.05039 -1.34106,0.0768 -3.22578,-0.19434 -4.18828,-0.60261 l -1.75,-0.7423 v 1.52409 C 299,300.7534 295.17022,309 294.03554,309 c -1.42091,0 -1.30686,-3.32868 0.16446,-4.8 l 1.2,-1.2 h -1.2 c -0.66,0 -1.2,-1.125 -1.2,-2.5 0,-1.375 0.40186,-2.5 0.89301,-2.5 0.49116,0 1.161,-0.69837 1.48855,-1.55194 0.34149,-0.88992 0.17385,-1.29132 -0.39301,-0.94098 C 294.44485,295.8431 294,295.16492 294,294 c 0,-1.16492 0.45,-1.83992 1,-1.5 0.55,0.33992 1,-0.30852 1,-1.44098 0,-1.13246 0.43588,-2.05902 0.96862,-2.05902 0.53273,0 0.73185,-0.61698 0.44248,-1.37106 -0.28936,-0.75408 0.2069,-2.10408 1.10282,-3 0.89591,-0.89592 1.31669,-1.62894 0.93506,-1.62894 -0.38163,0 -0.15003,-0.65529 0.51467,-1.4562 0.66469,-0.8009 0.94199,-1.88747 0.61621,-2.41458 -0.32578,-0.52712 -0.0506,-1.13897 0.6115,-1.35967 l 1.20382,-0.40128 -1.29391,-3.12378 c -0.71165,-1.71808 -0.99704,-3.60411 -0.63421,-4.1912 0.36284,-0.58708 -0.0124,-1.32532 -0.8338,-1.64053 -0.82143,-0.31521 -1.95692,-1.90244 -2.5233,-3.52718 -0.60338,-1.73086 -0.63855,-2.71227 -0.0849,-2.37011 0.56124,0.34686 0.69722,-0.65426 0.33492,-2.46576 L 296.75,257 h 1.49014 c 0.81958,0 2.67355,0.93087 4.11994,2.0686 l 2.6298,2.0686 -0.53797,-1.40193 c -0.31403,-0.81835 0.086,-1.40194 0.96107,-1.40194 0.82447,0 1.2705,0.3698 0.99117,0.82176 -0.55329,0.89524 4.62542,7.84483 5.84585,7.84488 0.4125,2e-5 0.66892,-0.33747 0.56983,-0.74997 -0.24902,-1.03655 3.26608,-8.33223 5.14065,-10.66957 l 1.53952,-1.91956 -1.89144,0.69246 -1.89145,0.69245 1.26389,-1.52289 C 317.67614,252.6853 319.0959,252 320.13601,252 c 1.9602,0 5.13313,-1.5165 8.05098,-3.84796 0.92784,-0.74138 2.16534,-1.05232 2.75,-0.69098 1.40248,0.86678 1.36927,3.53894 -0.044,3.53894 H 329.786 l 0.7261,1.75 c 0.39935,0.9625 0.7475,2.3125 0.77366,3 0.0262,0.6875 0.61723,1.25 1.3135,1.25 0.69627,0 1.55762,0.91898 1.91411,2.04217 0.73845,2.32666 -0.54497,11.21891 -1.30342,9.03082 l -0.49465,-1.42702 -1.16729,3.42702 c -1.23005,3.61126 -0.95146,6.29438 0.55675,5.36225 0.49237,-0.3043 0.89522,-1.45327 0.89522,-2.55327 0,-3.25627 1.54087,-1.32449 1.81519,2.2757 0.13871,1.82034 0.68703,3.74455 1.2185,4.27602 0.53147,0.53147 0.96631,1.75586 0.96631,2.72086 0,0.965 1.05302,2.80756 2.34003,4.09458 1.28702,1.28702 2.6456,3.55747 3.01906,5.04545 0.9158,3.64887 3.05839,3.42368 8.30128,-0.87248 l 4.36636,-3.5779 2.98664,1.32201 c 1.64264,0.72711 2.98663,1.71392 2.98663,2.19291 0,0.479 1.2375,0.0745 2.75,-0.89891 l 2.75,-1.76981 -1.77842,2.01494 -1.77842,2.01495 1.00367,2.63986 c 0.55202,1.45192 1.55481,2.63985 2.22842,2.63985 h 1.22475 l -1.2,1.2 c -0.66,0.66 -1.2,2.29072 -1.2,3.62383 v 2.42383 l 5.48326,-0.45471 5.48326,-0.45472 -3.63189,2.46793 c -1.99753,1.35736 -4.47807,3.19376 -5.51229,4.08088 -1.03423,0.88713 -3.32985,2.14122 -5.10138,2.78688 l -3.22096,1.17392 2.25,0.0761 c 1.29952,0.0439 2.25,0.70973 2.25,1.57608 0,0.825 0.7875,1.51595 1.75,1.53544 l 1.75,0.0354 -2.10335,1.21457 c -2.57463,1.4867 -2.01655,3.709 0.93668,3.72987 l 2.16667,0.0153 -1.38927,0.87977 -1.38927,0.87978 2.8231,1.47918 2.82311,1.47917 -1.93384,0.57242 c -1.0636,0.31483 -3.53415,0.85513 -5.49009,1.20068 -1.95594,0.34554 -4.1011,1.50069 -4.76702,2.567 l -1.21076,1.93874 2.51702,1.14683 c 1.38436,0.63076 2.51702,1.4871 2.51702,1.90298 0,0.41589 1.2375,1.20813 2.75,1.76054 l 2.75,1.00439 -2.19098,0.0789 c -1.20504,0.0434 -2.48626,0.55671 -2.84714,1.14063 -0.36089,0.58393 -1.73745,1.47279 -3.05902,1.97525 -2.93405,1.11553 -3.1145,3.51184 -0.37485,4.97806 1.1154,0.59695 1.77362,1.49696 1.4627,2.00004 -0.31092,0.50307 1.17536,3.968 3.30283,7.69983 2.12747,3.73182 8.44425,14.74865 14.03729,24.48182 C 383.42387,390.92986 388,399.14236 388,399.44668 388,399.75101 320.275,400 237.5,400 154.725,400 87,399.79149 87,399.53665 Z m 97.2919,-69.18157 c 3.18554,-3.08254 5.57725,-5.81926 5.31492,-6.08159 -0.26234,-0.26234 -1.65382,-0.54369 -3.09219,-0.62523 l -2.61521,-0.14826 0.45213,-1.73265 0.45214,-1.73265 -1.68354,0.901 c -0.92594,0.49555 -3.24427,0.55543 -5.15184,0.13307 l -3.46831,-0.76793 3.76189,-0.76394 c 2.06904,-0.42017 4.70839,-0.51643 5.86523,-0.21391 2.32779,0.60873 5.87288,-1.16662 5.87288,-2.94109 0,-0.62536 0.69195,-1.71128 1.53768,-2.41317 l 1.53767,-1.27616 -3.03767,-1.47119 C 188.36695,310.41223 187,309.1314 187,308.3751 187,307.61879 186.60248,307 186.11663,307 c -0.48585,0 -1.12546,-0.92577 -1.42136,-2.05727 l -0.53798,-2.05727 2.4302,-1.10728 c 1.33661,-0.609 3.1059,-2.46174 3.93175,-4.11721 l 1.50156,-3.00993 -2.13692,-2.27464 c -2.18876,-2.32984 -1.99908,-5.37642 0.33474,-5.37637 0.70476,2e-5 2.53806,1.57502 4.07401,3.5 1.53595,1.92498 3.67345,3.49997 4.75,3.49997 1.16742,0 1.98923,0.70626 2.03632,1.75 0.0472,1.04544 0.28201,1.24674 0.58333,0.5 0.27741,-0.6875 1.61844,-1.25 2.98007,-1.25 1.39581,0 2.2061,-0.43619 1.85765,-1 -0.33992,-0.55 -0.1718,-1 0.3736,-1 0.54539,0 1.26735,-0.86873 1.60434,-1.9305 0.35964,-1.13312 1.93638,-2.2192 3.81739,-2.62946 1.76257,-0.38443 4.4767,-1.7657 6.0314,-3.0695 1.55469,-1.3038 3.66564,-2.37054 4.69098,-2.37054 1.02534,0 2.15986,-0.4783 2.52116,-1.0629 l 0.65691,-1.0629 L 222,281.5 l -4.19578,0.6258 0.58684,-0.94954 c 0.32277,-0.52224 2.12337,-1.23779 4.00134,-1.5901 3.43415,-0.64425 4.6076,-2.09574 4.6076,-5.69933 0,-1.07228 0.7875,-2.24015 1.75,-2.59527 0.9625,-0.35512 2.03719,-1.07365 2.3882,-1.59673 1.04443,-1.55645 3.07672,0.37532 2.5428,2.41703 -0.27128,1.03738 -0.11398,2.12054 0.34956,2.40702 0.46353,0.28649 1.47823,1.79465 2.25488,3.35149 l 1.4121,2.8306 -6.4092,3.25575 c -3.52506,1.79066 -6.16091,3.50404 -5.85745,3.80751 0.30347,0.30346 0.0506,1.15566 -0.56201,1.89376 L 223.75511,291 h 1.00047 c 0.55026,0 1.61786,-0.86146 2.37245,-1.91437 0.75458,-1.0529 2.94697,-2.18094 4.87197,-2.50677 l 3.5,-0.5924 -3.25,1.6882 c -1.7875,0.9285 -3.25,2.19692 -3.25,2.81871 0,0.62178 -1.28345,2.07941 -2.85212,3.23918 l -2.85212,2.10866 -2.86968,-2.6706 -2.86967,-2.67061 2.47179,2.83495 2.4718,2.83495 -2.25,1.82534 c -1.2375,1.00394 -2.25,2.54071 -2.25,3.41505 0,0.87434 -0.64436,1.58971 -1.43191,1.58971 -0.78754,0 -2.41988,1.38749 -3.62741,3.08331 l -2.19551,3.08331 -1.87259,-0.48969 C 207.84266,308.4076 207,308.59511 207,309.09362 207,309.59213 206.52463,310 205.94363,310 c -1.27594,0 -7.08392,6.19304 -6.42548,6.85148 0.25547,0.25548 -0.0457,1.07928 -0.66933,1.83068 -1.50881,1.81801 -0.28637,2.92586 1.54834,1.40319 l 1.44549,-1.19965 -0.57885,2.21352 -0.57885,2.21352 1.15753,-0.71539 c 1.96191,-1.21253 1.28838,0.27309 -1.58676,3.49996 -3.00061,3.36766 -8.86166,6.26788 -11.00479,5.44549 -0.74514,-0.28594 -1.08803,-0.0882 -0.76197,0.43934 0.32606,0.52757 -0.66307,1.2246 -2.19806,1.54895 -1.535,0.32434 -3.57229,1.01253 -4.52733,1.52931 -3.75417,2.03141 -3.01833,0.66198 2.52833,-4.70532 z"
         id="path2897" />
    </g>
  </g>
</svg>
